<svg width="40" height="40" viewBox="0 0 40 40" fill="none" xmlns="http://www.w3.org/2000/svg">
<circle cx="20" cy="20" r="19.5" stroke="white"/>
<g clip-path="url(#clip0_432_1258)">
<path d="M19.1533 30C17.4309 30 16.0283 28.5983 16.0283 26.875C16.0283 26.53 16.3083 26.25 16.6533 26.25C16.9983 26.25 17.2783 26.53 17.2783 26.875C17.2783 27.9092 18.12 28.75 19.1533 28.75C20.1866 28.75 21.0283 27.9092 21.0283 26.875C21.0283 26.53 21.3083 26.25 21.6533 26.25C21.9983 26.25 22.2783 26.53 22.2783 26.875C22.2783 28.5983 20.8759 30 19.1533 30Z" fill="white"/>
<path d="M26.0286 27.5H12.2786C11.4745 27.5 10.8203 26.8459 10.8203 26.0417C10.8203 25.6149 11.0062 25.2109 11.3303 24.9333C11.3512 24.915 11.3736 24.8984 11.3969 24.8833C12.6202 23.8158 13.3203 22.28 13.3203 20.6583V18.3333C13.3203 15.1167 15.9378 12.5 19.1536 12.5C19.287 12.5 19.4312 12.5024 19.5645 12.525C19.9052 12.5816 20.1353 12.9042 20.0786 13.2442C20.022 13.5841 19.6936 13.8142 19.3594 13.7575C19.2928 13.7466 19.2195 13.75 19.1536 13.75C16.627 13.75 14.5703 15.8058 14.5703 18.3333V20.6583C14.5703 22.6717 13.6877 24.5767 12.1512 25.8841C12.1387 25.8942 12.1278 25.9033 12.1144 25.9125C12.092 25.9409 12.0703 25.9842 12.0703 26.0417C12.0703 26.1549 12.1654 26.25 12.2786 26.25H26.0286C26.142 26.25 26.237 26.1549 26.237 26.0417C26.237 25.9833 26.2154 25.9409 26.192 25.9125C26.1795 25.9033 26.1687 25.8942 26.1562 25.8841C24.6187 24.5758 23.737 22.6717 23.737 20.6583V19.7501C23.737 19.4051 24.017 19.1251 24.362 19.1251C24.707 19.1251 24.987 19.4051 24.987 19.7501V20.6583C24.987 22.2809 25.6879 23.8174 26.9128 24.8859C26.9353 24.9008 26.9569 24.9167 26.9769 24.9342C27.3012 25.2109 27.487 25.6149 27.487 26.0417C27.487 26.8459 26.8329 27.5 26.0286 27.5Z" fill="white"/>
<path d="M24.987 18.3333C22.6895 18.3333 20.8203 16.4642 20.8203 14.1667C20.8203 11.8692 22.6895 10 24.987 10C27.2845 10 29.1536 11.8692 29.1536 14.1667C29.1536 16.4642 27.2845 18.3333 24.987 18.3333ZM24.987 11.25C23.3786 11.25 22.0703 12.5583 22.0703 14.1667C22.0703 15.775 23.3786 17.0833 24.987 17.0833C26.5953 17.0833 27.9036 15.775 27.9036 14.1667C27.9036 12.5583 26.5953 11.25 24.987 11.25Z" fill="white"/>
</g>
<defs>
<clipPath id="clip0_432_1258">
<rect width="20" height="20" fill="white" transform="translate(10 10)"/>
</clipPath>
</defs>
</svg>
